<svg width="145" height="108" viewBox="0 0 145 108" fill="none" xmlns="http://www.w3.org/2000/svg">
<path d="M81.0359 20.2354C61.6791 31.411 55.047 56.1626 66.2226 75.5194C74.1533 89.2558 85.611 98.4913 100.862 97.3485C101.568 97.2956 102.252 97.0687 102.865 96.7146L136.354 77.3794C136.968 77.0254 137.506 76.5472 137.905 75.9621C146.52 63.3256 144.251 48.7851 136.32 35.0487C125.144 15.692 100.393 9.05979 81.0359 20.2354Z" fill="#FF8989"/>
<path d="M7.16817 35.0496C18.3438 15.693 43.0956 9.06057 62.4524 20.2361C65.218 21.8329 67.723 23.7078 69.9543 25.8035C57.2733 39.2645 54.3106 59.9451 64.0324 76.784L64.4192 77.4461C66.131 80.3398 68.0155 83.057 70.0734 85.535C62.8781 93.4817 53.7643 98.1839 42.6262 97.3494C41.9202 97.2965 41.2364 97.0696 40.6233 96.7156L7.134 77.3797C6.5208 77.0257 5.98207 76.5477 5.58321 75.9627C-3.0319 63.3262 -0.762359 48.7859 7.16817 35.0496Z" fill="#70C6FF"/>
</svg>
